<mxfile host="app.diagrams.net" agent="Mozilla/5.0 (Windows NT 10.0; Win64; x64) AppleWebKit/537.36 (KHTML, like Gecko) Chrome/136.0.0.0 Safari/537.36 Edg/136.0.0.0" version="27.0.6">
  <diagram name="第 1 页" id="Z-0cSpz57w4KoETilMWk">
    <mxGraphModel dx="2633" dy="971" grid="1" gridSize="10" guides="1" tooltips="1" connect="1" arrows="1" fold="1" page="1" pageScale="1" pageWidth="827" pageHeight="1169" math="0" shadow="0">
      <root>
        <mxCell id="0" />
        <mxCell id="1" parent="0" />
        <mxCell id="zdtQbdjInj4RLJj2KbnW-124" value="" style="rounded=0;whiteSpace=wrap;html=1;" parent="1" vertex="1">
          <mxGeometry x="630" y="1408" width="180" height="207" as="geometry" />
        </mxCell>
        <mxCell id="zdtQbdjInj4RLJj2KbnW-2" value="" style="rounded=0;whiteSpace=wrap;html=1;" parent="1" vertex="1">
          <mxGeometry x="1090" y="1140" width="180" height="160" as="geometry" />
        </mxCell>
        <mxCell id="zdtQbdjInj4RLJj2KbnW-3" value="" style="rounded=0;whiteSpace=wrap;html=1;" parent="1" vertex="1">
          <mxGeometry x="20" y="1290" width="180" height="110" as="geometry" />
        </mxCell>
        <mxCell id="zdtQbdjInj4RLJj2KbnW-4" value="" style="rounded=0;whiteSpace=wrap;html=1;" parent="1" vertex="1">
          <mxGeometry x="-370" y="1058" width="180" height="100" as="geometry" />
        </mxCell>
        <mxCell id="zdtQbdjInj4RLJj2KbnW-6" value="User" style="swimlane;childLayout=stackLayout;horizontal=1;startSize=50;horizontalStack=0;rounded=1;fontSize=14;fontStyle=0;strokeWidth=2;resizeParent=0;resizeLast=1;shadow=0;dashed=0;align=center;arcSize=4;whiteSpace=wrap;html=1;" parent="1" vertex="1">
          <mxGeometry x="70" y="828" width="160" height="180" as="geometry" />
        </mxCell>
        <mxCell id="zdtQbdjInj4RLJj2KbnW-7" value="&lt;u&gt;userId&lt;/u&gt;&lt;div&gt;account&lt;/div&gt;&lt;div&gt;passwordHash&lt;/div&gt;&lt;div&gt;status&lt;/div&gt;&lt;div&gt;createAt&lt;/div&gt;&lt;div&gt;deleteAt&lt;/div&gt;&lt;div&gt;lastLoginAt&lt;/div&gt;&lt;div&gt;lastLoginIp&lt;/div&gt;" style="align=left;strokeColor=none;fillColor=none;spacingLeft=4;spacingRight=4;fontSize=12;verticalAlign=top;resizable=0;rotatable=0;part=1;html=1;whiteSpace=wrap;" parent="zdtQbdjInj4RLJj2KbnW-6" vertex="1">
          <mxGeometry y="50" width="160" height="130" as="geometry" />
        </mxCell>
        <mxCell id="zdtQbdjInj4RLJj2KbnW-8" value="UserProfiles" style="swimlane;childLayout=stackLayout;horizontal=1;startSize=50;horizontalStack=0;rounded=1;fontSize=14;fontStyle=0;strokeWidth=2;resizeParent=0;resizeLast=1;shadow=0;dashed=0;align=center;arcSize=4;whiteSpace=wrap;html=1;" parent="1" vertex="1">
          <mxGeometry x="-360" y="828" width="160" height="150" as="geometry" />
        </mxCell>
        <mxCell id="zdtQbdjInj4RLJj2KbnW-9" value="&lt;u&gt;userId&lt;/u&gt;&lt;div&gt;nickname&lt;/div&gt;&lt;div&gt;avatarUrl&lt;/div&gt;&lt;div&gt;gender&lt;/div&gt;&lt;div&gt;birthday&lt;/div&gt;&lt;div&gt;level&lt;/div&gt;" style="align=left;strokeColor=none;fillColor=none;spacingLeft=4;spacingRight=4;fontSize=12;verticalAlign=top;resizable=0;rotatable=0;part=1;html=1;whiteSpace=wrap;" parent="zdtQbdjInj4RLJj2KbnW-8" vertex="1">
          <mxGeometry y="50" width="160" height="100" as="geometry" />
        </mxCell>
        <mxCell id="zdtQbdjInj4RLJj2KbnW-10" style="edgeStyle=orthogonalEdgeStyle;rounded=0;orthogonalLoop=1;jettySize=auto;html=1;exitX=1;exitY=0.5;exitDx=0;exitDy=0;entryX=0;entryY=0.5;entryDx=0;entryDy=0;" parent="1" source="zdtQbdjInj4RLJj2KbnW-11" target="zdtQbdjInj4RLJj2KbnW-6" edge="1">
          <mxGeometry relative="1" as="geometry" />
        </mxCell>
        <mxCell id="zdtQbdjInj4RLJj2KbnW-11" value="has" style="shape=rhombus;perimeter=rhombusPerimeter;whiteSpace=wrap;html=1;align=center;" parent="1" vertex="1">
          <mxGeometry x="-130" y="888" width="120" height="60" as="geometry" />
        </mxCell>
        <mxCell id="zdtQbdjInj4RLJj2KbnW-12" value="Address" style="swimlane;childLayout=stackLayout;horizontal=1;startSize=50;horizontalStack=0;rounded=1;fontSize=14;fontStyle=0;strokeWidth=2;resizeParent=0;resizeLast=1;shadow=0;dashed=0;align=center;arcSize=4;whiteSpace=wrap;html=1;" parent="1" vertex="1">
          <mxGeometry x="70" y="528" width="160" height="150" as="geometry" />
        </mxCell>
        <mxCell id="zdtQbdjInj4RLJj2KbnW-13" value="&lt;u&gt;addressId&lt;/u&gt;&lt;div&gt;userId&lt;/div&gt;&lt;div&gt;receiverName&lt;/div&gt;&lt;div&gt;phone&lt;/div&gt;&lt;div&gt;locationDetail&lt;/div&gt;&lt;div&gt;isDefault&lt;/div&gt;" style="align=left;strokeColor=none;fillColor=none;spacingLeft=4;spacingRight=4;fontSize=12;verticalAlign=top;resizable=0;rotatable=0;part=1;html=1;whiteSpace=wrap;" parent="zdtQbdjInj4RLJj2KbnW-12" vertex="1">
          <mxGeometry y="50" width="160" height="100" as="geometry" />
        </mxCell>
        <mxCell id="zdtQbdjInj4RLJj2KbnW-14" value="Merchant" style="swimlane;childLayout=stackLayout;horizontal=1;startSize=50;horizontalStack=0;rounded=1;fontSize=14;fontStyle=0;strokeWidth=2;resizeParent=0;resizeLast=1;shadow=0;dashed=0;align=center;arcSize=4;whiteSpace=wrap;html=1;" parent="1" vertex="1">
          <mxGeometry x="370" y="1900" width="160" height="135" as="geometry" />
        </mxCell>
        <mxCell id="zdtQbdjInj4RLJj2KbnW-15" value="&lt;u&gt;merchantId&lt;/u&gt;&lt;div&gt;merchantName&lt;/div&gt;&lt;div&gt;status&lt;/div&gt;&lt;div&gt;contactInfo&lt;/div&gt;&lt;div&gt;location&lt;/div&gt;" style="align=left;strokeColor=none;fillColor=none;spacingLeft=4;spacingRight=4;fontSize=12;verticalAlign=top;resizable=0;rotatable=0;part=1;html=1;whiteSpace=wrap;" parent="zdtQbdjInj4RLJj2KbnW-14" vertex="1">
          <mxGeometry y="50" width="160" height="85" as="geometry" />
        </mxCell>
        <mxCell id="zdtQbdjInj4RLJj2KbnW-16" value="Category" style="swimlane;childLayout=stackLayout;horizontal=1;startSize=50;horizontalStack=0;rounded=1;fontSize=14;fontStyle=0;strokeWidth=2;resizeParent=0;resizeLast=1;shadow=0;dashed=0;align=center;arcSize=4;whiteSpace=wrap;html=1;" parent="1" vertex="1">
          <mxGeometry x="150" y="1685" width="160" height="120" as="geometry" />
        </mxCell>
        <mxCell id="zdtQbdjInj4RLJj2KbnW-17" value="&lt;u&gt;categoryId&lt;/u&gt;&lt;div&gt;categoryName&lt;/div&gt;&lt;div&gt;parentId&lt;/div&gt;&lt;div&gt;sortOrder&lt;/div&gt;" style="align=left;strokeColor=none;fillColor=none;spacingLeft=4;spacingRight=4;fontSize=12;verticalAlign=top;resizable=0;rotatable=0;part=1;html=1;whiteSpace=wrap;" parent="zdtQbdjInj4RLJj2KbnW-16" vertex="1">
          <mxGeometry y="50" width="160" height="70" as="geometry" />
        </mxCell>
        <mxCell id="zdtQbdjInj4RLJj2KbnW-18" value="Dish" style="swimlane;childLayout=stackLayout;horizontal=1;startSize=50;horizontalStack=0;rounded=1;fontSize=14;fontStyle=0;strokeWidth=2;resizeParent=0;resizeLast=1;shadow=0;dashed=0;align=center;arcSize=4;whiteSpace=wrap;html=1;" parent="1" vertex="1">
          <mxGeometry x="639" y="1415" width="160" height="190" as="geometry" />
        </mxCell>
        <mxCell id="zdtQbdjInj4RLJj2KbnW-19" value="&lt;u&gt;&lt;font style=&quot;color: rgb(153, 0, 0);&quot;&gt;dishId&lt;/font&gt;&lt;/u&gt;&lt;div&gt;categoryId&lt;/div&gt;&lt;div&gt;dishName&lt;/div&gt;&lt;div&gt;price&lt;/div&gt;&lt;div&gt;originPrice&lt;/div&gt;&lt;div&gt;coverUrl&lt;/div&gt;&lt;div&gt;monthlySales&lt;/div&gt;&lt;div&gt;rating&lt;/div&gt;&lt;div&gt;onSale&lt;/div&gt;" style="align=left;strokeColor=none;fillColor=none;spacingLeft=4;spacingRight=4;fontSize=12;verticalAlign=top;resizable=0;rotatable=0;part=1;html=1;whiteSpace=wrap;" parent="zdtQbdjInj4RLJj2KbnW-18" vertex="1">
          <mxGeometry y="50" width="160" height="140" as="geometry" />
        </mxCell>
        <mxCell id="zdtQbdjInj4RLJj2KbnW-20" value="Favorite" style="swimlane;childLayout=stackLayout;horizontal=1;startSize=50;horizontalStack=0;rounded=1;fontSize=14;fontStyle=0;strokeWidth=2;resizeParent=0;resizeLast=1;shadow=0;dashed=0;align=center;arcSize=4;whiteSpace=wrap;html=1;" parent="1" vertex="1">
          <mxGeometry x="-360" y="1068" width="160" height="80" as="geometry" />
        </mxCell>
        <mxCell id="zdtQbdjInj4RLJj2KbnW-21" value="&lt;div&gt;&lt;font style=&quot;color: rgb(204, 0, 0);&quot;&gt;favorAt&lt;/font&gt;&lt;/div&gt;" style="align=left;strokeColor=none;fillColor=none;spacingLeft=4;spacingRight=4;fontSize=12;verticalAlign=top;resizable=0;rotatable=0;part=1;html=1;whiteSpace=wrap;" parent="zdtQbdjInj4RLJj2KbnW-20" vertex="1">
          <mxGeometry y="50" width="160" height="30" as="geometry" />
        </mxCell>
        <mxCell id="zdtQbdjInj4RLJj2KbnW-178" style="edgeStyle=none;curved=1;rounded=0;orthogonalLoop=1;jettySize=auto;html=1;exitX=0.5;exitY=1;exitDx=0;exitDy=0;fontSize=12;startSize=8;endSize=8;" parent="zdtQbdjInj4RLJj2KbnW-20" source="zdtQbdjInj4RLJj2KbnW-20" target="zdtQbdjInj4RLJj2KbnW-21" edge="1">
          <mxGeometry relative="1" as="geometry" />
        </mxCell>
        <mxCell id="zdtQbdjInj4RLJj2KbnW-22" value="CartItem" style="swimlane;childLayout=stackLayout;horizontal=1;startSize=50;horizontalStack=0;rounded=1;fontSize=14;fontStyle=0;strokeWidth=2;resizeParent=0;resizeLast=1;shadow=0;dashed=0;align=center;arcSize=4;whiteSpace=wrap;html=1;" parent="1" vertex="1">
          <mxGeometry x="30" y="1297.5" width="160" height="92.5" as="geometry" />
        </mxCell>
        <mxCell id="zdtQbdjInj4RLJj2KbnW-23" value="&lt;u&gt;&lt;font style=&quot;color: rgb(255, 0, 0);&quot;&gt;cartItemId&lt;/font&gt;&lt;/u&gt;&lt;div&gt;addAt&lt;/div&gt;" style="align=left;strokeColor=none;fillColor=none;spacingLeft=4;spacingRight=4;fontSize=12;verticalAlign=top;resizable=0;rotatable=0;part=1;html=1;whiteSpace=wrap;" parent="zdtQbdjInj4RLJj2KbnW-22" vertex="1">
          <mxGeometry y="50" width="160" height="42.5" as="geometry" />
        </mxCell>
        <mxCell id="zdtQbdjInj4RLJj2KbnW-24" value="Order" style="swimlane;childLayout=stackLayout;horizontal=1;startSize=50;horizontalStack=0;rounded=1;fontSize=14;fontStyle=0;strokeWidth=2;resizeParent=0;resizeLast=1;shadow=0;dashed=0;align=center;arcSize=4;whiteSpace=wrap;html=1;" parent="1" vertex="1">
          <mxGeometry x="650" y="830" width="160" height="160" as="geometry" />
        </mxCell>
        <mxCell id="zdtQbdjInj4RLJj2KbnW-25" value="&lt;div&gt;&lt;u&gt;orderId&lt;/u&gt;&lt;/div&gt;userId&lt;div&gt;addressId&lt;/div&gt;&lt;div&gt;orderAmount&lt;/div&gt;&lt;div&gt;createAt&lt;/div&gt;&lt;div&gt;orderStatus&lt;/div&gt;" style="align=left;strokeColor=none;fillColor=none;spacingLeft=4;spacingRight=4;fontSize=12;verticalAlign=top;resizable=0;rotatable=0;part=1;html=1;whiteSpace=wrap;" parent="zdtQbdjInj4RLJj2KbnW-24" vertex="1">
          <mxGeometry y="50" width="160" height="110" as="geometry" />
        </mxCell>
        <mxCell id="zdtQbdjInj4RLJj2KbnW-28" value="OrderLog" style="swimlane;childLayout=stackLayout;horizontal=1;startSize=50;horizontalStack=0;rounded=1;fontSize=14;fontStyle=0;strokeWidth=2;resizeParent=0;resizeLast=1;shadow=0;dashed=0;align=center;arcSize=4;whiteSpace=wrap;html=1;" parent="1" vertex="1">
          <mxGeometry x="1100" y="1150" width="160" height="140" as="geometry" />
        </mxCell>
        <mxCell id="zdtQbdjInj4RLJj2KbnW-29" value="&lt;u&gt;&lt;font style=&quot;color: rgb(255, 0, 0);&quot;&gt;l&lt;font style=&quot;color: rgb(255, 0, 0);&quot;&gt;ogId&lt;/font&gt;&lt;/font&gt;&lt;/u&gt;&lt;div&gt;statusCode&lt;/div&gt;&lt;div&gt;loggedAt&lt;/div&gt;&lt;div&gt;actor&lt;/div&gt;&lt;div&gt;remark&lt;/div&gt;" style="align=left;strokeColor=none;fillColor=none;spacingLeft=4;spacingRight=4;fontSize=12;verticalAlign=top;resizable=0;rotatable=0;part=1;html=1;whiteSpace=wrap;" parent="zdtQbdjInj4RLJj2KbnW-28" vertex="1">
          <mxGeometry y="50" width="160" height="90" as="geometry" />
        </mxCell>
        <mxCell id="zdtQbdjInj4RLJj2KbnW-30" value="Payment" style="swimlane;childLayout=stackLayout;horizontal=1;startSize=50;horizontalStack=0;rounded=1;fontSize=14;fontStyle=0;strokeWidth=2;resizeParent=0;resizeLast=1;shadow=0;dashed=0;align=center;arcSize=4;whiteSpace=wrap;html=1;" parent="1" vertex="1">
          <mxGeometry x="1110" y="960" width="160" height="150" as="geometry" />
        </mxCell>
        <mxCell id="zdtQbdjInj4RLJj2KbnW-31" value="&lt;u&gt;payId&lt;/u&gt;&lt;div&gt;orderId&lt;/div&gt;&lt;div&gt;channel&lt;/div&gt;&lt;div&gt;payAmount&lt;/div&gt;&lt;div&gt;payStatus&lt;/div&gt;&lt;div&gt;payTime&lt;/div&gt;" style="align=left;strokeColor=none;fillColor=none;spacingLeft=4;spacingRight=4;fontSize=12;verticalAlign=top;resizable=0;rotatable=0;part=1;html=1;whiteSpace=wrap;" parent="zdtQbdjInj4RLJj2KbnW-30" vertex="1">
          <mxGeometry y="50" width="160" height="100" as="geometry" />
        </mxCell>
        <mxCell id="zdtQbdjInj4RLJj2KbnW-32" value="Refund" style="swimlane;childLayout=stackLayout;horizontal=1;startSize=50;horizontalStack=0;rounded=1;fontSize=14;fontStyle=0;strokeWidth=2;resizeParent=0;resizeLast=1;shadow=0;dashed=0;align=center;arcSize=4;whiteSpace=wrap;html=1;" parent="1" vertex="1">
          <mxGeometry x="1110" y="750" width="160" height="180" as="geometry" />
        </mxCell>
        <mxCell id="zdtQbdjInj4RLJj2KbnW-33" value="&lt;u&gt;refundId&lt;/u&gt;&lt;div&gt;orderId&lt;/div&gt;&lt;div&gt;applicationId&lt;/div&gt;&lt;div&gt;reason&lt;/div&gt;&lt;div&gt;refundAmount&lt;/div&gt;&lt;div&gt;applyAt&lt;/div&gt;&lt;div&gt;audisStatus&lt;/div&gt;&lt;div&gt;finishAt&lt;/div&gt;&lt;div&gt;&lt;u&gt;&lt;br&gt;&lt;/u&gt;&lt;/div&gt;" style="align=left;strokeColor=none;fillColor=none;spacingLeft=4;spacingRight=4;fontSize=12;verticalAlign=top;resizable=0;rotatable=0;part=1;html=1;whiteSpace=wrap;" parent="zdtQbdjInj4RLJj2KbnW-32" vertex="1">
          <mxGeometry y="50" width="160" height="130" as="geometry" />
        </mxCell>
        <mxCell id="zdtQbdjInj4RLJj2KbnW-34" value="Review" style="swimlane;childLayout=stackLayout;horizontal=1;startSize=50;horizontalStack=0;rounded=1;fontSize=14;fontStyle=0;strokeWidth=2;resizeParent=0;resizeLast=1;shadow=0;dashed=0;align=center;arcSize=4;whiteSpace=wrap;html=1;" parent="1" vertex="1">
          <mxGeometry x="370" y="1110" width="160" height="160" as="geometry" />
        </mxCell>
        <mxCell id="zdtQbdjInj4RLJj2KbnW-35" value="&lt;div&gt;&lt;u&gt;reviewId&lt;/u&gt;&lt;/div&gt;&lt;div&gt;&lt;span style=&quot;background-color: transparent; color: light-dark(rgb(0, 0, 0), rgb(255, 255, 255));&quot;&gt;userId&lt;/span&gt;&lt;/div&gt;&lt;div&gt;&lt;span style=&quot;background-color: transparent; color: light-dark(rgb(0, 0, 0), rgb(255, 255, 255));&quot;&gt;dishId&lt;/span&gt;&lt;/div&gt;&lt;div&gt;rating&lt;/div&gt;&lt;div&gt;content&lt;/div&gt;&lt;div&gt;isAnonymous&lt;/div&gt;&lt;div&gt;reviewAt&lt;/div&gt;" style="align=left;strokeColor=none;fillColor=none;spacingLeft=4;spacingRight=4;fontSize=12;verticalAlign=top;resizable=0;rotatable=0;part=1;html=1;whiteSpace=wrap;" parent="zdtQbdjInj4RLJj2KbnW-34" vertex="1">
          <mxGeometry y="50" width="160" height="110" as="geometry" />
        </mxCell>
        <mxCell id="zdtQbdjInj4RLJj2KbnW-36" value="Complaint" style="swimlane;childLayout=stackLayout;horizontal=1;startSize=50;horizontalStack=0;rounded=1;fontSize=14;fontStyle=0;strokeWidth=2;resizeParent=0;resizeLast=1;shadow=0;dashed=0;align=center;arcSize=4;whiteSpace=wrap;html=1;" parent="1" vertex="1">
          <mxGeometry x="600" y="435" width="160" height="150" as="geometry" />
        </mxCell>
        <mxCell id="zdtQbdjInj4RLJj2KbnW-37" value="&lt;div&gt;&lt;u&gt;complaintId&lt;/u&gt;&lt;/div&gt;&lt;div&gt;orderId&lt;/div&gt;&lt;div&gt;complaintId&lt;/div&gt;&lt;div&gt;role&lt;/div&gt;&lt;div&gt;description&lt;/div&gt;&lt;div&gt;status&lt;/div&gt;" style="align=left;strokeColor=none;fillColor=none;spacingLeft=4;spacingRight=4;fontSize=12;verticalAlign=top;resizable=0;rotatable=0;part=1;html=1;whiteSpace=wrap;" parent="zdtQbdjInj4RLJj2KbnW-36" vertex="1">
          <mxGeometry y="50" width="160" height="100" as="geometry" />
        </mxCell>
        <mxCell id="zdtQbdjInj4RLJj2KbnW-38" style="edgeStyle=orthogonalEdgeStyle;rounded=0;orthogonalLoop=1;jettySize=auto;html=1;exitX=0;exitY=0.5;exitDx=0;exitDy=0;entryX=0.985;entryY=0.395;entryDx=0;entryDy=0;entryPerimeter=0;" parent="1" source="zdtQbdjInj4RLJj2KbnW-11" target="zdtQbdjInj4RLJj2KbnW-9" edge="1">
          <mxGeometry relative="1" as="geometry" />
        </mxCell>
        <mxCell id="zdtQbdjInj4RLJj2KbnW-39" style="edgeStyle=orthogonalEdgeStyle;rounded=0;orthogonalLoop=1;jettySize=auto;html=1;entryX=0.5;entryY=1;entryDx=0;entryDy=0;endArrow=none;startFill=0;" parent="1" source="zdtQbdjInj4RLJj2KbnW-41" target="zdtQbdjInj4RLJj2KbnW-12" edge="1">
          <mxGeometry relative="1" as="geometry" />
        </mxCell>
        <mxCell id="zdtQbdjInj4RLJj2KbnW-40" style="edgeStyle=orthogonalEdgeStyle;rounded=0;orthogonalLoop=1;jettySize=auto;html=1;entryX=0.5;entryY=0;entryDx=0;entryDy=0;" parent="1" source="zdtQbdjInj4RLJj2KbnW-41" target="zdtQbdjInj4RLJj2KbnW-6" edge="1">
          <mxGeometry relative="1" as="geometry" />
        </mxCell>
        <mxCell id="zdtQbdjInj4RLJj2KbnW-41" value="owns" style="shape=rhombus;perimeter=rhombusPerimeter;whiteSpace=wrap;html=1;align=center;" parent="1" vertex="1">
          <mxGeometry x="90" y="718" width="120" height="60" as="geometry" />
        </mxCell>
        <mxCell id="zdtQbdjInj4RLJj2KbnW-42" style="edgeStyle=orthogonalEdgeStyle;rounded=0;orthogonalLoop=1;jettySize=auto;html=1;exitX=1;exitY=0.5;exitDx=0;exitDy=0;entryX=0;entryY=0.5;entryDx=0;entryDy=0;endArrow=none;startFill=0;" parent="1" source="zdtQbdjInj4RLJj2KbnW-43" target="zdtQbdjInj4RLJj2KbnW-24" edge="1">
          <mxGeometry relative="1" as="geometry" />
        </mxCell>
        <mxCell id="zdtQbdjInj4RLJj2KbnW-43" value="places" style="shape=rhombus;perimeter=rhombusPerimeter;whiteSpace=wrap;html=1;align=center;" parent="1" vertex="1">
          <mxGeometry x="450" y="880" width="120" height="60" as="geometry" />
        </mxCell>
        <mxCell id="zdtQbdjInj4RLJj2KbnW-44" style="edgeStyle=orthogonalEdgeStyle;rounded=0;orthogonalLoop=1;jettySize=auto;html=1;entryX=1;entryY=0.25;entryDx=0;entryDy=0;" parent="1" source="zdtQbdjInj4RLJj2KbnW-43" target="zdtQbdjInj4RLJj2KbnW-7" edge="1">
          <mxGeometry relative="1" as="geometry" />
        </mxCell>
        <mxCell id="zdtQbdjInj4RLJj2KbnW-45" style="edgeStyle=orthogonalEdgeStyle;rounded=0;orthogonalLoop=1;jettySize=auto;html=1;exitX=1;exitY=0.5;exitDx=0;exitDy=0;entryX=0;entryY=0.5;entryDx=0;entryDy=0;endArrow=none;startFill=0;" parent="1" source="zdtQbdjInj4RLJj2KbnW-47" target="zdtQbdjInj4RLJj2KbnW-37" edge="1">
          <mxGeometry relative="1" as="geometry">
            <mxPoint x="210.00000000000045" y="1216" as="targetPoint" />
          </mxGeometry>
        </mxCell>
        <mxCell id="zdtQbdjInj4RLJj2KbnW-46" style="edgeStyle=orthogonalEdgeStyle;rounded=0;orthogonalLoop=1;jettySize=auto;html=1;exitX=0;exitY=0.5;exitDx=0;exitDy=0;entryX=1;entryY=0.25;entryDx=0;entryDy=0;" parent="1" source="zdtQbdjInj4RLJj2KbnW-47" target="zdtQbdjInj4RLJj2KbnW-6" edge="1">
          <mxGeometry relative="1" as="geometry" />
        </mxCell>
        <mxCell id="zdtQbdjInj4RLJj2KbnW-47" value="files" style="shape=rhombus;perimeter=rhombusPerimeter;whiteSpace=wrap;html=1;align=center;" parent="1" vertex="1">
          <mxGeometry x="330" y="718" width="120" height="60" as="geometry" />
        </mxCell>
        <mxCell id="zdtQbdjInj4RLJj2KbnW-48" style="edgeStyle=orthogonalEdgeStyle;rounded=0;orthogonalLoop=1;jettySize=auto;html=1;entryX=0.5;entryY=1;entryDx=0;entryDy=0;endArrow=none;endFill=1;startFill=0;shape=link;" parent="1" source="zdtQbdjInj4RLJj2KbnW-49" target="zdtQbdjInj4RLJj2KbnW-37" edge="1">
          <mxGeometry relative="1" as="geometry" />
        </mxCell>
        <mxCell id="zdtQbdjInj4RLJj2KbnW-49" value="targets" style="shape=rhombus;perimeter=rhombusPerimeter;whiteSpace=wrap;html=1;align=center;" parent="1" vertex="1">
          <mxGeometry x="620" y="690" width="120" height="60" as="geometry" />
        </mxCell>
        <mxCell id="zdtQbdjInj4RLJj2KbnW-50" style="edgeStyle=orthogonalEdgeStyle;rounded=0;orthogonalLoop=1;jettySize=auto;html=1;shape=link;exitX=0.5;exitY=1;exitDx=0;exitDy=0;entryX=0;entryY=0.5;entryDx=0;entryDy=0;" parent="1" source="zdtQbdjInj4RLJj2KbnW-91" target="zdtQbdjInj4RLJj2KbnW-2" edge="1">
          <mxGeometry relative="1" as="geometry">
            <mxPoint x="790" y="1110" as="sourcePoint" />
            <mxPoint x="830" y="1225" as="targetPoint" />
          </mxGeometry>
        </mxCell>
        <mxCell id="zdtQbdjInj4RLJj2KbnW-51" style="rounded=0;orthogonalLoop=1;jettySize=auto;html=1;entryX=0.193;entryY=-0.013;entryDx=0;entryDy=0;entryPerimeter=0;" parent="1" source="zdtQbdjInj4RLJj2KbnW-49" target="zdtQbdjInj4RLJj2KbnW-24" edge="1">
          <mxGeometry relative="1" as="geometry" />
        </mxCell>
        <mxCell id="zdtQbdjInj4RLJj2KbnW-52" style="edgeStyle=orthogonalEdgeStyle;rounded=0;orthogonalLoop=1;jettySize=auto;html=1;exitX=0.5;exitY=0;exitDx=0;exitDy=0;" parent="1" source="zdtQbdjInj4RLJj2KbnW-91" edge="1">
          <mxGeometry relative="1" as="geometry">
            <mxPoint x="790" y="1050" as="sourcePoint" />
            <mxPoint x="790" y="990" as="targetPoint" />
            <Array as="points">
              <mxPoint x="940" y="1020" />
              <mxPoint x="790" y="1020" />
              <mxPoint x="790" y="990" />
            </Array>
          </mxGeometry>
        </mxCell>
        <mxCell id="zdtQbdjInj4RLJj2KbnW-53" style="edgeStyle=orthogonalEdgeStyle;rounded=0;orthogonalLoop=1;jettySize=auto;html=1;exitX=1;exitY=0.5;exitDx=0;exitDy=0;entryX=0;entryY=0.25;entryDx=0;entryDy=0;" parent="1" source="zdtQbdjInj4RLJj2KbnW-54" target="zdtQbdjInj4RLJj2KbnW-31" edge="1">
          <mxGeometry relative="1" as="geometry" />
        </mxCell>
        <mxCell id="zdtQbdjInj4RLJj2KbnW-54" value="paid_by" style="shape=rhombus;perimeter=rhombusPerimeter;whiteSpace=wrap;html=1;align=center;" parent="1" vertex="1">
          <mxGeometry x="896.75" y="930" width="120" height="60" as="geometry" />
        </mxCell>
        <mxCell id="zdtQbdjInj4RLJj2KbnW-55" style="rounded=0;orthogonalLoop=1;jettySize=auto;html=1;entryX=1.001;entryY=0.702;entryDx=0;entryDy=0;entryPerimeter=0;" parent="1" source="zdtQbdjInj4RLJj2KbnW-54" target="zdtQbdjInj4RLJj2KbnW-25" edge="1">
          <mxGeometry relative="1" as="geometry" />
        </mxCell>
        <mxCell id="zdtQbdjInj4RLJj2KbnW-56" style="edgeStyle=orthogonalEdgeStyle;rounded=0;orthogonalLoop=1;jettySize=auto;html=1;entryX=-0.005;entryY=0.694;entryDx=0;entryDy=0;entryPerimeter=0;" parent="1" source="zdtQbdjInj4RLJj2KbnW-57" target="zdtQbdjInj4RLJj2KbnW-33" edge="1">
          <mxGeometry relative="1" as="geometry" />
        </mxCell>
        <mxCell id="zdtQbdjInj4RLJj2KbnW-57" value="may_have" style="shape=rhombus;perimeter=rhombusPerimeter;whiteSpace=wrap;html=1;align=center;" parent="1" vertex="1">
          <mxGeometry x="884" y="860" width="120" height="60" as="geometry" />
        </mxCell>
        <mxCell id="zdtQbdjInj4RLJj2KbnW-58" style="edgeStyle=orthogonalEdgeStyle;rounded=0;orthogonalLoop=1;jettySize=auto;html=1;entryX=0.984;entryY=0.092;entryDx=0;entryDy=0;entryPerimeter=0;" parent="1" source="zdtQbdjInj4RLJj2KbnW-57" target="zdtQbdjInj4RLJj2KbnW-25" edge="1">
          <mxGeometry relative="1" as="geometry" />
        </mxCell>
        <mxCell id="zdtQbdjInj4RLJj2KbnW-62" style="rounded=0;orthogonalLoop=1;jettySize=auto;html=1;exitX=1;exitY=0.5;exitDx=0;exitDy=0;endArrow=none;startFill=0;entryX=0.435;entryY=0.005;entryDx=0;entryDy=0;entryPerimeter=0;edgeStyle=orthogonalEdgeStyle;" parent="1" source="zdtQbdjInj4RLJj2KbnW-63" target="zdtQbdjInj4RLJj2KbnW-34" edge="1">
          <mxGeometry relative="1" as="geometry">
            <mxPoint x="490.1399999999999" y="601.6199999999999" as="targetPoint" />
          </mxGeometry>
        </mxCell>
        <mxCell id="zdtQbdjInj4RLJj2KbnW-63" value="writes" style="shape=rhombus;perimeter=rhombusPerimeter;whiteSpace=wrap;html=1;align=center;" parent="1" vertex="1">
          <mxGeometry x="294" y="960" width="120" height="60" as="geometry" />
        </mxCell>
        <mxCell id="zdtQbdjInj4RLJj2KbnW-64" style="edgeStyle=orthogonalEdgeStyle;rounded=0;orthogonalLoop=1;jettySize=auto;html=1;exitX=0;exitY=0.5;exitDx=0;exitDy=0;entryX=0.99;entryY=0.865;entryDx=0;entryDy=0;entryPerimeter=0;" parent="1" source="zdtQbdjInj4RLJj2KbnW-63" target="zdtQbdjInj4RLJj2KbnW-7" edge="1">
          <mxGeometry relative="1" as="geometry" />
        </mxCell>
        <mxCell id="zdtQbdjInj4RLJj2KbnW-67" style="edgeStyle=orthogonalEdgeStyle;rounded=0;orthogonalLoop=1;jettySize=auto;html=1;entryX=0.997;entryY=0.694;entryDx=0;entryDy=0;endArrow=none;startFill=0;entryPerimeter=0;" parent="1" source="zdtQbdjInj4RLJj2KbnW-68" target="zdtQbdjInj4RLJj2KbnW-4" edge="1">
          <mxGeometry relative="1" as="geometry" />
        </mxCell>
        <mxCell id="zdtQbdjInj4RLJj2KbnW-68" value="favors" style="shape=rhombus;perimeter=rhombusPerimeter;whiteSpace=wrap;html=1;align=center;" parent="1" vertex="1">
          <mxGeometry x="-130" y="1008" width="120" height="60" as="geometry" />
        </mxCell>
        <mxCell id="zdtQbdjInj4RLJj2KbnW-69" style="edgeStyle=orthogonalEdgeStyle;rounded=0;orthogonalLoop=1;jettySize=auto;html=1;entryX=0.003;entryY=0.796;entryDx=0;entryDy=0;entryPerimeter=0;" parent="1" source="zdtQbdjInj4RLJj2KbnW-68" target="zdtQbdjInj4RLJj2KbnW-7" edge="1">
          <mxGeometry relative="1" as="geometry" />
        </mxCell>
        <mxCell id="zdtQbdjInj4RLJj2KbnW-70" style="edgeStyle=orthogonalEdgeStyle;rounded=0;orthogonalLoop=1;jettySize=auto;html=1;exitX=0.5;exitY=1;exitDx=0;exitDy=0;entryX=0;entryY=0.5;entryDx=0;entryDy=0;" parent="1" source="zdtQbdjInj4RLJj2KbnW-88" target="zdtQbdjInj4RLJj2KbnW-124" edge="1">
          <mxGeometry relative="1" as="geometry">
            <mxPoint x="-119.99999999999977" y="1260" as="sourcePoint" />
            <mxPoint x="-90" y="1270" as="targetPoint" />
            <Array as="points">
              <mxPoint x="-280" y="1512" />
            </Array>
          </mxGeometry>
        </mxCell>
        <mxCell id="zdtQbdjInj4RLJj2KbnW-71" style="edgeStyle=orthogonalEdgeStyle;rounded=0;orthogonalLoop=1;jettySize=auto;html=1;exitX=0.5;exitY=0;exitDx=0;exitDy=0;endArrow=none;startFill=0;" parent="1" edge="1">
          <mxGeometry relative="1" as="geometry">
            <mxPoint x="-279.9999999999998" y="1208" as="sourcePoint" />
            <mxPoint x="-280" y="1158" as="targetPoint" />
          </mxGeometry>
        </mxCell>
        <mxCell id="zdtQbdjInj4RLJj2KbnW-72" style="edgeStyle=orthogonalEdgeStyle;rounded=0;orthogonalLoop=1;jettySize=auto;html=1;entryX=1;entryY=0.25;entryDx=0;entryDy=0;" parent="1" source="zdtQbdjInj4RLJj2KbnW-74" target="zdtQbdjInj4RLJj2KbnW-17" edge="1">
          <mxGeometry relative="1" as="geometry" />
        </mxCell>
        <mxCell id="zdtQbdjInj4RLJj2KbnW-73" style="rounded=0;orthogonalLoop=1;jettySize=auto;html=1;shape=link;entryX=0.561;entryY=1.002;entryDx=0;entryDy=0;exitX=1;exitY=0.5;exitDx=0;exitDy=0;entryPerimeter=0;edgeStyle=orthogonalEdgeStyle;" parent="1" source="zdtQbdjInj4RLJj2KbnW-74" target="zdtQbdjInj4RLJj2KbnW-124" edge="1">
          <mxGeometry relative="1" as="geometry">
            <mxPoint x="-210" y="1388" as="targetPoint" />
          </mxGeometry>
        </mxCell>
        <mxCell id="zdtQbdjInj4RLJj2KbnW-74" value="categorizes" style="shape=rhombus;perimeter=rhombusPerimeter;whiteSpace=wrap;html=1;align=center;" parent="1" vertex="1">
          <mxGeometry x="370" y="1722.5" width="120" height="60" as="geometry" />
        </mxCell>
        <mxCell id="zdtQbdjInj4RLJj2KbnW-75" style="edgeStyle=orthogonalEdgeStyle;rounded=0;orthogonalLoop=1;jettySize=auto;html=1;entryX=0;entryY=0.5;entryDx=0;entryDy=0;exitX=0;exitY=0.5;exitDx=0;exitDy=0;" parent="1" source="zdtQbdjInj4RLJj2KbnW-76" target="zdtQbdjInj4RLJj2KbnW-16" edge="1">
          <mxGeometry relative="1" as="geometry">
            <Array as="points">
              <mxPoint x="90" y="1560" />
              <mxPoint x="90" y="1745" />
            </Array>
          </mxGeometry>
        </mxCell>
        <mxCell id="zdtQbdjInj4RLJj2KbnW-76" value="subcategorizes" style="shape=rhombus;perimeter=rhombusPerimeter;whiteSpace=wrap;html=1;align=center;" parent="1" vertex="1">
          <mxGeometry x="170" y="1530" width="120" height="60" as="geometry" />
        </mxCell>
        <mxCell id="zdtQbdjInj4RLJj2KbnW-77" style="edgeStyle=orthogonalEdgeStyle;rounded=0;orthogonalLoop=1;jettySize=auto;html=1;exitX=1;exitY=0.5;exitDx=0;exitDy=0;entryX=0.996;entryY=0.35;entryDx=0;entryDy=0;entryPerimeter=0;endArrow=none;startFill=0;" parent="1" source="zdtQbdjInj4RLJj2KbnW-76" target="zdtQbdjInj4RLJj2KbnW-16" edge="1">
          <mxGeometry relative="1" as="geometry">
            <Array as="points">
              <mxPoint x="350" y="1560" />
              <mxPoint x="350" y="1727" />
            </Array>
          </mxGeometry>
        </mxCell>
        <mxCell id="zdtQbdjInj4RLJj2KbnW-79" style="edgeStyle=orthogonalEdgeStyle;rounded=0;orthogonalLoop=1;jettySize=auto;html=1;exitX=0.5;exitY=1;exitDx=0;exitDy=0;entryX=1;entryY=0.25;entryDx=0;entryDy=0;" parent="1" source="zdtQbdjInj4RLJj2KbnW-184" target="zdtQbdjInj4RLJj2KbnW-15" edge="1">
          <mxGeometry relative="1" as="geometry">
            <mxPoint x="420" y="1820" as="targetPoint" />
          </mxGeometry>
        </mxCell>
        <mxCell id="zdtQbdjInj4RLJj2KbnW-80" style="rounded=0;orthogonalLoop=1;jettySize=auto;html=1;shape=link;entryX=0.836;entryY=1.002;entryDx=0;entryDy=0;exitX=0.5;exitY=0;exitDx=0;exitDy=0;entryPerimeter=0;" parent="1" source="zdtQbdjInj4RLJj2KbnW-184" target="zdtQbdjInj4RLJj2KbnW-124" edge="1">
          <mxGeometry relative="1" as="geometry">
            <mxPoint x="150" y="1490" as="sourcePoint" />
            <mxPoint x="-19.5" y="1440" as="targetPoint" />
          </mxGeometry>
        </mxCell>
        <mxCell id="zdtQbdjInj4RLJj2KbnW-84" style="edgeStyle=orthogonalEdgeStyle;rounded=0;orthogonalLoop=1;jettySize=auto;html=1;entryX=0.25;entryY=1;entryDx=0;entryDy=0;" parent="1" target="zdtQbdjInj4RLJj2KbnW-7" edge="1">
          <mxGeometry relative="1" as="geometry">
            <mxPoint x="110" y="1158" as="sourcePoint" />
          </mxGeometry>
        </mxCell>
        <mxCell id="zdtQbdjInj4RLJj2KbnW-85" style="edgeStyle=orthogonalEdgeStyle;rounded=0;orthogonalLoop=1;jettySize=auto;html=1;endArrow=none;startFill=0;" parent="1" edge="1">
          <mxGeometry relative="1" as="geometry">
            <mxPoint x="110" y="1218" as="sourcePoint" />
            <mxPoint x="110" y="1298" as="targetPoint" />
          </mxGeometry>
        </mxCell>
        <mxCell id="zdtQbdjInj4RLJj2KbnW-87" style="rounded=0;orthogonalLoop=1;jettySize=auto;html=1;endArrow=none;startFill=0;exitX=0;exitY=0.5;exitDx=0;exitDy=0;entryX=0.999;entryY=0.634;entryDx=0;entryDy=0;entryPerimeter=0;" parent="1" source="zdtQbdjInj4RLJj2KbnW-89" target="zdtQbdjInj4RLJj2KbnW-3" edge="1">
          <mxGeometry relative="1" as="geometry">
            <mxPoint x="240.00000000000045" y="1368" as="sourcePoint" />
            <mxPoint x="20" y="1368" as="targetPoint" />
          </mxGeometry>
        </mxCell>
        <mxCell id="zdtQbdjInj4RLJj2KbnW-88" value="favor_dish" style="shape=rhombus;double=1;perimeter=rhombusPerimeter;whiteSpace=wrap;html=1;align=center;" parent="1" vertex="1">
          <mxGeometry x="-340" y="1208" width="120" height="60" as="geometry" />
        </mxCell>
        <mxCell id="zdtQbdjInj4RLJj2KbnW-89" value="dish_cart" style="shape=rhombus;double=1;perimeter=rhombusPerimeter;whiteSpace=wrap;html=1;align=center;" parent="1" vertex="1">
          <mxGeometry x="400" y="1330" width="120" height="60" as="geometry" />
        </mxCell>
        <mxCell id="zdtQbdjInj4RLJj2KbnW-90" value="adds" style="shape=rhombus;double=1;perimeter=rhombusPerimeter;whiteSpace=wrap;html=1;align=center;" parent="1" vertex="1">
          <mxGeometry x="50" y="1158" width="120" height="60" as="geometry" />
        </mxCell>
        <mxCell id="zdtQbdjInj4RLJj2KbnW-91" value="logs" style="shape=rhombus;double=1;perimeter=rhombusPerimeter;whiteSpace=wrap;html=1;align=center;" parent="1" vertex="1">
          <mxGeometry x="880" y="1050" width="120" height="60" as="geometry" />
        </mxCell>
        <mxCell id="zdtQbdjInj4RLJj2KbnW-93" value="rider" style="swimlane;childLayout=stackLayout;horizontal=1;startSize=50;horizontalStack=0;rounded=1;fontSize=14;fontStyle=0;strokeWidth=2;resizeParent=0;resizeLast=1;shadow=0;dashed=0;align=center;arcSize=4;whiteSpace=wrap;html=1;" parent="1" vertex="1">
          <mxGeometry x="1018" y="1916" width="160" height="120" as="geometry">
            <mxRectangle x="260" y="141" width="70" height="50" as="alternateBounds" />
          </mxGeometry>
        </mxCell>
        <mxCell id="zdtQbdjInj4RLJj2KbnW-94" value="&lt;u&gt;riderId&lt;/u&gt;&lt;div&gt;name&lt;br&gt;phoneNumber&lt;/div&gt;&lt;div&gt;vehicleNumber&lt;/div&gt;" style="align=left;strokeColor=none;fillColor=none;spacingLeft=4;spacingRight=4;fontSize=12;verticalAlign=top;resizable=0;rotatable=0;part=1;html=1;whiteSpace=wrap;" parent="zdtQbdjInj4RLJj2KbnW-93" vertex="1">
          <mxGeometry y="50" width="160" height="70" as="geometry" />
        </mxCell>
        <mxCell id="zdtQbdjInj4RLJj2KbnW-95" style="edgeStyle=orthogonalEdgeStyle;rounded=0;orthogonalLoop=1;jettySize=auto;html=1;exitX=0.5;exitY=1;exitDx=0;exitDy=0;entryX=0.5;entryY=1;entryDx=0;entryDy=0;shape=link;" parent="1" source="zdtQbdjInj4RLJj2KbnW-96" target="zdtQbdjInj4RLJj2KbnW-94" edge="1">
          <mxGeometry relative="1" as="geometry" />
        </mxCell>
        <mxCell id="zdtQbdjInj4RLJj2KbnW-96" value="rider_sched" style="shape=rhombus;perimeter=rhombusPerimeter;whiteSpace=wrap;html=1;align=center;direction=west;" parent="1" vertex="1">
          <mxGeometry x="1038" y="2113" width="120" height="60" as="geometry" />
        </mxCell>
        <mxCell id="zdtQbdjInj4RLJj2KbnW-97" value="schedule" style="swimlane;childLayout=stackLayout;horizontal=1;startSize=50;horizontalStack=0;rounded=1;fontSize=14;fontStyle=0;strokeWidth=2;resizeParent=0;resizeLast=1;shadow=0;dashed=0;align=center;arcSize=4;whiteSpace=wrap;html=1;direction=east;" parent="1" vertex="1">
          <mxGeometry x="1018" y="2265" width="162" height="115" as="geometry" />
        </mxCell>
        <mxCell id="zdtQbdjInj4RLJj2KbnW-98" value="&lt;u&gt;schedId&lt;/u&gt;&lt;div&gt;workDate&lt;/div&gt;&lt;div&gt;shiftStart&lt;/div&gt;&lt;div&gt;shiftEnd&lt;/div&gt;" style="align=left;strokeColor=none;fillColor=none;spacingLeft=4;spacingRight=4;fontSize=12;verticalAlign=top;resizable=0;rotatable=0;part=1;html=1;whiteSpace=wrap;" parent="zdtQbdjInj4RLJj2KbnW-97" vertex="1">
          <mxGeometry y="50" width="162" height="65" as="geometry" />
        </mxCell>
        <mxCell id="zdtQbdjInj4RLJj2KbnW-99" value="" style="endArrow=none;html=1;rounded=0;exitX=0.5;exitY=0;exitDx=0;exitDy=0;" parent="1" source="zdtQbdjInj4RLJj2KbnW-97" target="zdtQbdjInj4RLJj2KbnW-96" edge="1">
          <mxGeometry relative="1" as="geometry">
            <mxPoint x="1218" y="1875" as="sourcePoint" />
            <mxPoint x="1378" y="1875" as="targetPoint" />
          </mxGeometry>
        </mxCell>
        <mxCell id="zdtQbdjInj4RLJj2KbnW-109" value="assignment" style="swimlane;childLayout=stackLayout;horizontal=1;startSize=50;horizontalStack=0;rounded=1;fontSize=14;fontStyle=0;strokeWidth=2;resizeParent=0;resizeLast=1;shadow=0;dashed=0;align=center;arcSize=4;whiteSpace=wrap;html=1;" parent="1" vertex="1">
          <mxGeometry x="1060" y="1380" width="153.5" height="140" as="geometry" />
        </mxCell>
        <mxCell id="zdtQbdjInj4RLJj2KbnW-110" value="&lt;u&gt;assignId&lt;/u&gt;&lt;div&gt;assignedAt&lt;/div&gt;&lt;div&gt;acceptStatus&lt;/div&gt;&lt;div&gt;acceptedAt&lt;/div&gt;&lt;div&gt;timeOut&lt;/div&gt;" style="align=left;strokeColor=none;fillColor=none;spacingLeft=4;spacingRight=4;fontSize=12;verticalAlign=top;resizable=0;rotatable=0;part=1;html=1;whiteSpace=wrap;" parent="zdtQbdjInj4RLJj2KbnW-109" vertex="1">
          <mxGeometry y="50" width="153.5" height="90" as="geometry" />
        </mxCell>
        <mxCell id="zdtQbdjInj4RLJj2KbnW-111" style="edgeStyle=orthogonalEdgeStyle;rounded=0;orthogonalLoop=1;jettySize=auto;html=1;entryX=0.5;entryY=0;entryDx=0;entryDy=0;" parent="1" source="zdtQbdjInj4RLJj2KbnW-113" target="zdtQbdjInj4RLJj2KbnW-93" edge="1">
          <mxGeometry relative="1" as="geometry" />
        </mxCell>
        <mxCell id="zdtQbdjInj4RLJj2KbnW-112" style="edgeStyle=orthogonalEdgeStyle;rounded=0;orthogonalLoop=1;jettySize=auto;html=1;shape=link;exitX=0.5;exitY=1;exitDx=0;exitDy=0;" parent="1" source="zdtQbdjInj4RLJj2KbnW-115" edge="1">
          <mxGeometry relative="1" as="geometry">
            <mxPoint x="760.89" y="1760" as="sourcePoint" />
            <mxPoint x="759" y="990" as="targetPoint" />
            <Array as="points">
              <mxPoint x="905" y="1100" />
              <mxPoint x="759" y="1100" />
            </Array>
          </mxGeometry>
        </mxCell>
        <mxCell id="zdtQbdjInj4RLJj2KbnW-113" value="rider_assign" style="shape=rhombus;perimeter=rhombusPerimeter;whiteSpace=wrap;html=1;align=center;direction=west;" parent="1" vertex="1">
          <mxGeometry x="1038" y="1750" width="120" height="60" as="geometry" />
        </mxCell>
        <mxCell id="zdtQbdjInj4RLJj2KbnW-115" value="assign_order" style="shape=rhombus;perimeter=rhombusPerimeter;whiteSpace=wrap;html=1;align=center;direction=west;" parent="1" vertex="1">
          <mxGeometry x="845" y="1330" width="120" height="60" as="geometry" />
        </mxCell>
        <mxCell id="zdtQbdjInj4RLJj2KbnW-117" value="" style="group" parent="1" vertex="1" connectable="0">
          <mxGeometry x="1455" y="1879" width="199" height="170" as="geometry" />
        </mxCell>
        <mxCell id="zdtQbdjInj4RLJj2KbnW-118" value="" style="verticalLabelPosition=bottom;verticalAlign=top;html=1;shape=mxgraph.basic.rect;fillColor2=none;strokeWidth=1;size=20;indent=5;" parent="zdtQbdjInj4RLJj2KbnW-117" vertex="1">
          <mxGeometry width="199.00000000000003" height="169.99999999999997" as="geometry" />
        </mxCell>
        <mxCell id="zdtQbdjInj4RLJj2KbnW-119" value="performance" style="swimlane;childLayout=stackLayout;horizontal=1;startSize=50;horizontalStack=0;rounded=1;fontSize=14;fontStyle=0;strokeWidth=2;resizeParent=0;resizeLast=1;shadow=0;dashed=0;align=center;arcSize=4;whiteSpace=wrap;html=1;" parent="zdtQbdjInj4RLJj2KbnW-117" vertex="1">
          <mxGeometry x="10" y="10" width="180" height="150" as="geometry" />
        </mxCell>
        <mxCell id="zdtQbdjInj4RLJj2KbnW-120" value="&lt;u&gt;&lt;font style=&quot;color: rgb(153, 0, 0);&quot;&gt;statMonth&lt;/font&gt;&lt;/u&gt;&lt;div&gt;totalOrders&lt;/div&gt;&lt;div&gt;ontimeRate&lt;/div&gt;&lt;div&gt;goodReviewRate&lt;/div&gt;&lt;div&gt;badReviewNumber&lt;/div&gt;&lt;div&gt;income&lt;/div&gt;" style="align=left;strokeColor=none;fillColor=none;spacingLeft=4;spacingRight=4;fontSize=12;verticalAlign=top;resizable=0;rotatable=0;part=1;html=1;whiteSpace=wrap;" parent="zdtQbdjInj4RLJj2KbnW-119" vertex="1">
          <mxGeometry y="50" width="180" height="100" as="geometry" />
        </mxCell>
        <mxCell id="zdtQbdjInj4RLJj2KbnW-121" style="rounded=0;orthogonalLoop=1;jettySize=auto;html=1;exitX=0;exitY=0.5;exitDx=0;exitDy=0;entryX=1;entryY=0.25;entryDx=0;entryDy=0;shape=link;" parent="1" source="zdtQbdjInj4RLJj2KbnW-122" target="zdtQbdjInj4RLJj2KbnW-94" edge="1">
          <mxGeometry relative="1" as="geometry" />
        </mxCell>
        <mxCell id="zdtQbdjInj4RLJj2KbnW-122" value="rider_perform" style="shape=rhombus;double=1;perimeter=rhombusPerimeter;whiteSpace=wrap;html=1;align=center;" parent="1" vertex="1">
          <mxGeometry x="1264" y="1953" width="120" height="60" as="geometry" />
        </mxCell>
        <mxCell id="zdtQbdjInj4RLJj2KbnW-125" value="" style="rounded=0;whiteSpace=wrap;html=1;" parent="1" vertex="1">
          <mxGeometry x="390" y="2432" width="180" height="200" as="geometry" />
        </mxCell>
        <mxCell id="zdtQbdjInj4RLJj2KbnW-126" value="" style="rounded=0;whiteSpace=wrap;html=1;" parent="1" vertex="1">
          <mxGeometry y="2209" width="180" height="140" as="geometry" />
        </mxCell>
        <mxCell id="zdtQbdjInj4RLJj2KbnW-129" value="Application" style="swimlane;childLayout=stackLayout;horizontal=1;startSize=50;horizontalStack=0;rounded=1;fontSize=14;fontStyle=0;strokeWidth=2;resizeParent=0;resizeLast=1;shadow=0;dashed=0;align=center;arcSize=4;whiteSpace=wrap;html=1;" parent="1" vertex="1">
          <mxGeometry x="-273" y="1988" width="160" height="150" as="geometry" />
        </mxCell>
        <mxCell id="zdtQbdjInj4RLJj2KbnW-130" value="&lt;u&gt;applyId&lt;/u&gt;&lt;div&gt;companyName&lt;/div&gt;&lt;div&gt;submittedAt&lt;/div&gt;&lt;div&gt;audiStatus&lt;/div&gt;&lt;div&gt;autitAt&lt;/div&gt;&lt;div&gt;rejectReason&lt;/div&gt;" style="align=left;strokeColor=none;fillColor=none;spacingLeft=4;spacingRight=4;fontSize=12;verticalAlign=top;resizable=0;rotatable=0;part=1;html=1;whiteSpace=wrap;" parent="zdtQbdjInj4RLJj2KbnW-129" vertex="1">
          <mxGeometry y="50" width="160" height="100" as="geometry" />
        </mxCell>
        <mxCell id="zdtQbdjInj4RLJj2KbnW-131" value="Admin" style="swimlane;childLayout=stackLayout;horizontal=1;startSize=50;horizontalStack=0;rounded=1;fontSize=14;fontStyle=0;strokeWidth=2;resizeParent=0;resizeLast=1;shadow=0;dashed=0;align=center;arcSize=4;whiteSpace=wrap;html=1;" parent="1" vertex="1">
          <mxGeometry x="-273" y="2447" width="160" height="121" as="geometry" />
        </mxCell>
        <mxCell id="zdtQbdjInj4RLJj2KbnW-132" value="&lt;u&gt;adminId&lt;/u&gt;&lt;div&gt;roleId&lt;/div&gt;&lt;div&gt;permId&lt;/div&gt;&lt;div&gt;grantedAt&lt;/div&gt;" style="align=left;strokeColor=none;fillColor=none;spacingLeft=4;spacingRight=4;fontSize=12;verticalAlign=top;resizable=0;rotatable=0;part=1;html=1;whiteSpace=wrap;" parent="zdtQbdjInj4RLJj2KbnW-131" vertex="1">
          <mxGeometry y="50" width="160" height="71" as="geometry" />
        </mxCell>
        <mxCell id="zdtQbdjInj4RLJj2KbnW-135" value="Coupon" style="swimlane;childLayout=stackLayout;horizontal=1;startSize=50;horizontalStack=0;rounded=1;fontSize=14;fontStyle=0;strokeWidth=2;resizeParent=0;resizeLast=1;shadow=0;dashed=0;align=center;arcSize=4;whiteSpace=wrap;html=1;" parent="1" vertex="1">
          <mxGeometry x="1110" y="560" width="160" height="170" as="geometry" />
        </mxCell>
        <mxCell id="zdtQbdjInj4RLJj2KbnW-136" value="&lt;u&gt;couponId&lt;/u&gt;&lt;div&gt;faceValue&lt;/div&gt;&lt;div&gt;threshold&lt;/div&gt;&lt;div&gt;totalQty&lt;/div&gt;&lt;div&gt;issuedQty&lt;/div&gt;&lt;div&gt;startTime&lt;/div&gt;&lt;div&gt;endTime&lt;/div&gt;" style="align=left;strokeColor=none;fillColor=none;spacingLeft=4;spacingRight=4;fontSize=12;verticalAlign=top;resizable=0;rotatable=0;part=1;html=1;whiteSpace=wrap;" parent="zdtQbdjInj4RLJj2KbnW-135" vertex="1">
          <mxGeometry y="50" width="160" height="120" as="geometry" />
        </mxCell>
        <mxCell id="zdtQbdjInj4RLJj2KbnW-137" value="SalesStat" style="swimlane;childLayout=stackLayout;horizontal=1;startSize=50;horizontalStack=0;rounded=1;fontSize=14;fontStyle=0;strokeWidth=2;resizeParent=0;resizeLast=1;shadow=0;dashed=0;align=center;arcSize=4;whiteSpace=wrap;html=1;" parent="1" vertex="1">
          <mxGeometry x="10" y="2219" width="160" height="120" as="geometry" />
        </mxCell>
        <mxCell id="zdtQbdjInj4RLJj2KbnW-138" value="&lt;u&gt;&lt;font style=&quot;color: rgb(255, 0, 0);&quot;&gt;statDate&lt;/font&gt;&lt;/u&gt;&lt;div&gt;salesQty&lt;/div&gt;&lt;div&gt;salesAmount&lt;/div&gt;" style="align=left;strokeColor=none;fillColor=none;spacingLeft=4;spacingRight=4;fontSize=12;verticalAlign=top;resizable=0;rotatable=0;part=1;html=1;whiteSpace=wrap;" parent="zdtQbdjInj4RLJj2KbnW-137" vertex="1">
          <mxGeometry y="50" width="160" height="70" as="geometry" />
        </mxCell>
        <mxCell id="zdtQbdjInj4RLJj2KbnW-139" value="Settlement" style="swimlane;childLayout=stackLayout;horizontal=1;startSize=50;horizontalStack=0;rounded=1;fontSize=14;fontStyle=0;strokeWidth=2;resizeParent=0;resizeLast=1;shadow=0;dashed=0;align=center;arcSize=4;whiteSpace=wrap;html=1;" parent="1" vertex="1">
          <mxGeometry x="400" y="2442" width="160" height="180" as="geometry" />
        </mxCell>
        <mxCell id="zdtQbdjInj4RLJj2KbnW-140" value="&lt;u&gt;&lt;font style=&quot;color: rgb(204, 0, 0);&quot;&gt;settleId&lt;/font&gt;&lt;/u&gt;&lt;div&gt;periodStart&lt;/div&gt;&lt;div&gt;periodEnd&lt;/div&gt;&lt;div&gt;grossAmount&lt;/div&gt;&lt;div&gt;commissionFee&lt;/div&gt;&lt;div&gt;netAmount()&lt;/div&gt;&lt;div&gt;settledAt&lt;/div&gt;" style="align=left;strokeColor=none;fillColor=none;spacingLeft=4;spacingRight=4;fontSize=12;verticalAlign=top;resizable=0;rotatable=0;part=1;html=1;whiteSpace=wrap;" parent="zdtQbdjInj4RLJj2KbnW-139" vertex="1">
          <mxGeometry y="50" width="160" height="130" as="geometry" />
        </mxCell>
        <mxCell id="zdtQbdjInj4RLJj2KbnW-141" value="Announcement" style="swimlane;childLayout=stackLayout;horizontal=1;startSize=50;horizontalStack=0;rounded=1;fontSize=14;fontStyle=0;strokeWidth=2;resizeParent=0;resizeLast=1;shadow=0;dashed=0;align=center;arcSize=4;whiteSpace=wrap;html=1;" parent="1" vertex="1">
          <mxGeometry x="137" y="2450" width="160" height="160" as="geometry" />
        </mxCell>
        <mxCell id="zdtQbdjInj4RLJj2KbnW-142" value="&lt;u&gt;announceId&lt;/u&gt;&lt;div&gt;title&lt;/div&gt;&lt;div&gt;content&lt;/div&gt;&lt;div&gt;targetRole&lt;/div&gt;&lt;div&gt;startAt&lt;/div&gt;&lt;div&gt;endAt&lt;/div&gt;" style="align=left;strokeColor=none;fillColor=none;spacingLeft=4;spacingRight=4;fontSize=12;verticalAlign=top;resizable=0;rotatable=0;part=1;html=1;whiteSpace=wrap;" parent="zdtQbdjInj4RLJj2KbnW-141" vertex="1">
          <mxGeometry y="50" width="160" height="110" as="geometry" />
        </mxCell>
        <mxCell id="zdtQbdjInj4RLJj2KbnW-143" value="Reconciliation" style="swimlane;childLayout=stackLayout;horizontal=1;startSize=50;horizontalStack=0;rounded=1;fontSize=14;fontStyle=0;strokeWidth=2;resizeParent=0;resizeLast=1;shadow=0;dashed=0;align=center;arcSize=4;whiteSpace=wrap;html=1;" parent="1" vertex="1">
          <mxGeometry x="1114" y="356" width="160" height="179" as="geometry" />
        </mxCell>
        <mxCell id="zdtQbdjInj4RLJj2KbnW-144" value="&lt;u&gt;reconId&lt;/u&gt;&lt;div&gt;periodStart&lt;/div&gt;&lt;div&gt;periodEnd&lt;/div&gt;&lt;div&gt;foundAt&lt;/div&gt;&lt;div&gt;reconType&lt;/div&gt;&lt;div&gt;diffAmount&lt;/div&gt;&lt;div&gt;affectedOrders&lt;/div&gt;&lt;div&gt;isResolved&lt;/div&gt;" style="align=left;strokeColor=none;fillColor=none;spacingLeft=4;spacingRight=4;fontSize=12;verticalAlign=top;resizable=0;rotatable=0;part=1;html=1;whiteSpace=wrap;" parent="zdtQbdjInj4RLJj2KbnW-143" vertex="1">
          <mxGeometry y="50" width="160" height="129" as="geometry" />
        </mxCell>
        <mxCell id="zdtQbdjInj4RLJj2KbnW-145" value="SalesStat_Merchant" style="shape=rhombus;double=1;perimeter=rhombusPerimeter;whiteSpace=wrap;html=1;align=center;" parent="1" vertex="1">
          <mxGeometry x="215" y="2088" width="125" height="70" as="geometry" />
        </mxCell>
        <mxCell id="zdtQbdjInj4RLJj2KbnW-146" value="" style="shape=link;html=1;rounded=0;entryX=0.5;entryY=0;entryDx=0;entryDy=0;exitX=0;exitY=0.5;exitDx=0;exitDy=0;" parent="1" source="zdtQbdjInj4RLJj2KbnW-145" target="zdtQbdjInj4RLJj2KbnW-126" edge="1">
          <mxGeometry width="100" relative="1" as="geometry">
            <mxPoint x="210" y="2128" as="sourcePoint" />
            <mxPoint x="59.51999999999998" y="2598" as="targetPoint" />
            <Array as="points">
              <mxPoint x="90" y="2123" />
            </Array>
          </mxGeometry>
        </mxCell>
        <mxCell id="zdtQbdjInj4RLJj2KbnW-147" value="" style="endArrow=classic;html=1;rounded=0;entryX=0.25;entryY=1;entryDx=0;entryDy=0;exitX=1;exitY=0.5;exitDx=0;exitDy=0;" parent="1" source="zdtQbdjInj4RLJj2KbnW-145" target="zdtQbdjInj4RLJj2KbnW-15" edge="1">
          <mxGeometry width="50" height="50" relative="1" as="geometry">
            <mxPoint x="60" y="2408" as="sourcePoint" />
            <mxPoint x="240" y="2328" as="targetPoint" />
            <Array as="points">
              <mxPoint x="410" y="2123" />
            </Array>
          </mxGeometry>
        </mxCell>
        <mxCell id="zdtQbdjInj4RLJj2KbnW-148" value="Settlement_Merchant" style="shape=rhombus;double=1;perimeter=rhombusPerimeter;whiteSpace=wrap;html=1;align=center;" parent="1" vertex="1">
          <mxGeometry x="400" y="2158" width="160" height="90" as="geometry" />
        </mxCell>
        <mxCell id="zdtQbdjInj4RLJj2KbnW-149" value="" style="shape=link;html=1;rounded=0;entryX=0.5;entryY=0;entryDx=0;entryDy=0;exitX=0.5;exitY=1;exitDx=0;exitDy=0;" parent="1" source="zdtQbdjInj4RLJj2KbnW-148" target="zdtQbdjInj4RLJj2KbnW-125" edge="1">
          <mxGeometry width="100" relative="1" as="geometry">
            <mxPoint x="350" y="2548" as="sourcePoint" />
            <mxPoint x="350" y="2608" as="targetPoint" />
          </mxGeometry>
        </mxCell>
        <mxCell id="zdtQbdjInj4RLJj2KbnW-150" value="" style="endArrow=classic;html=1;rounded=0;exitX=0.5;exitY=0;exitDx=0;exitDy=0;entryX=0.676;entryY=1;entryDx=0;entryDy=0;entryPerimeter=0;" parent="1" source="zdtQbdjInj4RLJj2KbnW-148" target="zdtQbdjInj4RLJj2KbnW-15" edge="1">
          <mxGeometry width="50" height="50" relative="1" as="geometry">
            <mxPoint x="319.52" y="2418" as="sourcePoint" />
            <mxPoint x="320" y="2378" as="targetPoint" />
          </mxGeometry>
        </mxCell>
        <mxCell id="zdtQbdjInj4RLJj2KbnW-151" value="Application_Admin" style="shape=rhombus;perimeter=rhombusPerimeter;whiteSpace=wrap;html=1;align=center;" parent="1" vertex="1">
          <mxGeometry x="-273" y="2288" width="160" height="90" as="geometry" />
        </mxCell>
        <mxCell id="zdtQbdjInj4RLJj2KbnW-152" value="" style="shape=link;html=1;rounded=0;entryX=0.5;entryY=0;entryDx=0;entryDy=0;exitX=0.5;exitY=1;exitDx=0;exitDy=0;" parent="1" source="zdtQbdjInj4RLJj2KbnW-130" target="zdtQbdjInj4RLJj2KbnW-151" edge="1">
          <mxGeometry width="100" relative="1" as="geometry">
            <mxPoint x="-250" y="2418" as="sourcePoint" />
            <mxPoint x="-250" y="2458" as="targetPoint" />
          </mxGeometry>
        </mxCell>
        <mxCell id="zdtQbdjInj4RLJj2KbnW-153" value="" style="endArrow=classic;html=1;rounded=0;exitX=0.5;exitY=1;exitDx=0;exitDy=0;entryX=0.5;entryY=0;entryDx=0;entryDy=0;" parent="1" source="zdtQbdjInj4RLJj2KbnW-151" target="zdtQbdjInj4RLJj2KbnW-131" edge="1">
          <mxGeometry width="50" height="50" relative="1" as="geometry">
            <mxPoint x="-250.48000000000002" y="2578" as="sourcePoint" />
            <mxPoint x="-250.48000000000002" y="2648" as="targetPoint" />
          </mxGeometry>
        </mxCell>
        <mxCell id="zdtQbdjInj4RLJj2KbnW-154" value="" style="endArrow=classic;html=1;rounded=0;exitX=0;exitY=0.5;exitDx=0;exitDy=0;entryX=1;entryY=0;entryDx=0;entryDy=0;" parent="1" source="zdtQbdjInj4RLJj2KbnW-156" target="zdtQbdjInj4RLJj2KbnW-130" edge="1">
          <mxGeometry width="50" height="50" relative="1" as="geometry">
            <mxPoint x="-70" y="2278" as="sourcePoint" />
            <mxPoint x="-150" y="2278" as="targetPoint" />
            <Array as="points">
              <mxPoint x="-50" y="1988" />
              <mxPoint x="-50" y="2038" />
            </Array>
          </mxGeometry>
        </mxCell>
        <mxCell id="zdtQbdjInj4RLJj2KbnW-155" value="" style="endArrow=classic;html=1;rounded=0;exitX=1;exitY=0.5;exitDx=0;exitDy=0;entryX=-0.006;entryY=0.47;entryDx=0;entryDy=0;entryPerimeter=0;" parent="1" source="zdtQbdjInj4RLJj2KbnW-156" target="zdtQbdjInj4RLJj2KbnW-15" edge="1">
          <mxGeometry width="50" height="50" relative="1" as="geometry">
            <mxPoint x="110" y="2277.52" as="sourcePoint" />
            <mxPoint x="200" y="2278" as="targetPoint" />
          </mxGeometry>
        </mxCell>
        <mxCell id="zdtQbdjInj4RLJj2KbnW-156" value="Application_Admin" style="shape=rhombus;perimeter=rhombusPerimeter;whiteSpace=wrap;html=1;align=center;" parent="1" vertex="1">
          <mxGeometry x="36.25" y="1960" width="112.5" height="55" as="geometry" />
        </mxCell>
        <mxCell id="zdtQbdjInj4RLJj2KbnW-164" value="Order_Coupon" style="shape=rhombus;perimeter=rhombusPerimeter;whiteSpace=wrap;html=1;align=center;" parent="1" vertex="1">
          <mxGeometry x="845" y="750" width="110" height="60" as="geometry" />
        </mxCell>
        <mxCell id="zdtQbdjInj4RLJj2KbnW-165" value="" style="endArrow=classic;html=1;rounded=0;exitX=0.5;exitY=0;exitDx=0;exitDy=0;entryX=-0.007;entryY=0.427;entryDx=0;entryDy=0;entryPerimeter=0;" parent="1" source="zdtQbdjInj4RLJj2KbnW-164" target="zdtQbdjInj4RLJj2KbnW-136" edge="1">
          <mxGeometry width="50" height="50" relative="1" as="geometry">
            <mxPoint x="1599.52" y="464" as="sourcePoint" />
            <mxPoint x="1599.52" y="524" as="targetPoint" />
            <Array as="points">
              <mxPoint x="1030" y="750" />
              <mxPoint x="1030" y="660" />
            </Array>
          </mxGeometry>
        </mxCell>
        <mxCell id="zdtQbdjInj4RLJj2KbnW-166" value="" style="endArrow=none;html=1;rounded=0;exitX=0.5;exitY=1;exitDx=0;exitDy=0;entryX=1.007;entryY=0.069;entryDx=0;entryDy=0;entryPerimeter=0;" parent="1" source="zdtQbdjInj4RLJj2KbnW-164" target="zdtQbdjInj4RLJj2KbnW-24" edge="1">
          <mxGeometry width="50" height="50" relative="1" as="geometry">
            <mxPoint x="1599.52" y="344" as="sourcePoint" />
            <mxPoint x="1580" y="280" as="targetPoint" />
            <Array as="points">
              <mxPoint x="900" y="840" />
            </Array>
          </mxGeometry>
        </mxCell>
        <mxCell id="zdtQbdjInj4RLJj2KbnW-168" value="" style="endArrow=classic;html=1;rounded=0;entryX=0;entryY=0.75;entryDx=0;entryDy=0;exitX=1;exitY=0.5;exitDx=0;exitDy=0;" parent="1" source="zdtQbdjInj4RLJj2KbnW-169" target="zdtQbdjInj4RLJj2KbnW-144" edge="1">
          <mxGeometry width="50" height="50" relative="1" as="geometry">
            <mxPoint x="654" y="809" as="sourcePoint" />
            <mxPoint x="653.29" y="769" as="targetPoint" />
          </mxGeometry>
        </mxCell>
        <mxCell id="zdtQbdjInj4RLJj2KbnW-169" value="Order_Reconciliation" style="shape=rhombus;perimeter=rhombusPerimeter;whiteSpace=wrap;html=1;align=center;" parent="1" vertex="1">
          <mxGeometry x="896.75" y="470" width="120" height="65" as="geometry" />
        </mxCell>
        <mxCell id="zdtQbdjInj4RLJj2KbnW-170" value="" style="endArrow=none;html=1;rounded=0;exitX=0.893;exitY=0.001;exitDx=0;exitDy=0;entryX=0;entryY=0.5;entryDx=0;entryDy=0;exitPerimeter=0;edgeStyle=orthogonalEdgeStyle;" parent="1" source="zdtQbdjInj4RLJj2KbnW-24" target="zdtQbdjInj4RLJj2KbnW-169" edge="1">
          <mxGeometry width="50" height="50" relative="1" as="geometry">
            <mxPoint x="670" y="1920" as="sourcePoint" />
            <mxPoint x="704" y="1470" as="targetPoint" />
          </mxGeometry>
        </mxCell>
        <mxCell id="zdtQbdjInj4RLJj2KbnW-175" style="edgeStyle=orthogonalEdgeStyle;rounded=0;orthogonalLoop=1;jettySize=auto;html=1;shape=link;exitX=0.5;exitY=0;exitDx=0;exitDy=0;entryX=0;entryY=0.5;entryDx=0;entryDy=0;" parent="1" source="zdtQbdjInj4RLJj2KbnW-109" target="zdtQbdjInj4RLJj2KbnW-115" edge="1">
          <mxGeometry relative="1" as="geometry">
            <mxPoint x="1251" y="1590" as="sourcePoint" />
            <mxPoint x="1180" y="1390" as="targetPoint" />
          </mxGeometry>
        </mxCell>
        <mxCell id="zdtQbdjInj4RLJj2KbnW-176" style="rounded=0;orthogonalLoop=1;jettySize=auto;html=1;shape=link;exitX=0.5;exitY=1;exitDx=0;exitDy=0;entryX=0.25;entryY=1;entryDx=0;entryDy=0;" parent="1" source="zdtQbdjInj4RLJj2KbnW-113" target="zdtQbdjInj4RLJj2KbnW-110" edge="1">
          <mxGeometry relative="1" as="geometry">
            <mxPoint x="1090" y="1660" as="sourcePoint" />
            <mxPoint x="963" y="1550" as="targetPoint" />
          </mxGeometry>
        </mxCell>
        <mxCell id="zdtQbdjInj4RLJj2KbnW-184" value="provides" style="shape=rhombus;double=1;perimeter=rhombusPerimeter;whiteSpace=wrap;html=1;align=center;" parent="1" vertex="1">
          <mxGeometry x="720" y="1893" width="120" height="60" as="geometry" />
        </mxCell>
        <mxCell id="zdtQbdjInj4RLJj2KbnW-197" style="rounded=0;orthogonalLoop=1;jettySize=auto;html=1;exitX=-0.01;exitY=0.614;exitDx=0;exitDy=0;entryX=1;entryY=0.5;entryDx=0;entryDy=0;shape=link;width=-2.6582278481012658;exitPerimeter=0;" parent="1" source="zdtQbdjInj4RLJj2KbnW-118" target="zdtQbdjInj4RLJj2KbnW-122" edge="1">
          <mxGeometry relative="1" as="geometry">
            <mxPoint x="1490" y="1963" as="sourcePoint" />
            <mxPoint x="1394" y="1965" as="targetPoint" />
          </mxGeometry>
        </mxCell>
        <mxCell id="zdtQbdjInj4RLJj2KbnW-212" value="" style="endArrow=none;html=1;rounded=0;fontSize=12;startSize=8;endSize=8;exitX=0.5;exitY=0;exitDx=0;exitDy=0;entryX=0.095;entryY=1.018;entryDx=0;entryDy=0;entryPerimeter=0;" parent="1" source="zdtQbdjInj4RLJj2KbnW-81" target="zdtQbdjInj4RLJj2KbnW-25" edge="1">
          <mxGeometry width="50" height="50" relative="1" as="geometry">
            <mxPoint x="630" y="1040" as="sourcePoint" />
            <mxPoint x="680" y="990" as="targetPoint" />
          </mxGeometry>
        </mxCell>
        <mxCell id="zdtQbdjInj4RLJj2KbnW-215" value="" style="edgeStyle=orthogonalEdgeStyle;rounded=0;orthogonalLoop=1;jettySize=auto;html=1;endArrow=none;startFill=0;exitX=1;exitY=0.5;exitDx=0;exitDy=0;entryX=-0.004;entryY=0.156;entryDx=0;entryDy=0;entryPerimeter=0;" parent="1" source="zdtQbdjInj4RLJj2KbnW-89" target="zdtQbdjInj4RLJj2KbnW-124" edge="1">
          <mxGeometry relative="1" as="geometry">
            <mxPoint x="520" y="1360" as="sourcePoint" />
            <mxPoint x="640" y="1330" as="targetPoint" />
          </mxGeometry>
        </mxCell>
        <mxCell id="zdtQbdjInj4RLJj2KbnW-81" value="order_dish_review" style="shape=rhombus;perimeter=rhombusPerimeter;whiteSpace=wrap;html=1;align=center;" parent="1" vertex="1">
          <mxGeometry x="605" y="1169" width="120" height="60" as="geometry" />
        </mxCell>
        <mxCell id="zdtQbdjInj4RLJj2KbnW-221" style="rounded=0;orthogonalLoop=1;jettySize=auto;html=1;exitX=0;exitY=0.5;exitDx=0;exitDy=0;endArrow=none;startFill=0;entryX=1.013;entryY=0.361;entryDx=0;entryDy=0;entryPerimeter=0;" parent="1" source="zdtQbdjInj4RLJj2KbnW-81" target="zdtQbdjInj4RLJj2KbnW-35" edge="1">
          <mxGeometry relative="1" as="geometry">
            <mxPoint x="581" y="750" as="sourcePoint" />
            <mxPoint x="580" y="620" as="targetPoint" />
          </mxGeometry>
        </mxCell>
        <mxCell id="zdtQbdjInj4RLJj2KbnW-224" value="quantity" style="whiteSpace=wrap;html=1;" parent="1" vertex="1">
          <mxGeometry x="760" y="1183.5" width="80" height="31" as="geometry" />
        </mxCell>
        <mxCell id="zdtQbdjInj4RLJj2KbnW-226" value="" style="endArrow=none;dashed=1;html=1;dashPattern=1 3;strokeWidth=2;rounded=0;fontSize=12;startSize=8;endSize=8;curved=1;entryX=0;entryY=0.5;entryDx=0;entryDy=0;exitX=1;exitY=0.5;exitDx=0;exitDy=0;" parent="1" source="zdtQbdjInj4RLJj2KbnW-81" target="zdtQbdjInj4RLJj2KbnW-224" edge="1">
          <mxGeometry width="50" height="50" relative="1" as="geometry">
            <mxPoint x="760" y="1260" as="sourcePoint" />
            <mxPoint x="810" y="1210" as="targetPoint" />
          </mxGeometry>
        </mxCell>
        <mxCell id="zdtQbdjInj4RLJj2KbnW-104" value="attendance" style="swimlane;childLayout=stackLayout;horizontal=1;startSize=50;horizontalStack=0;rounded=1;fontSize=14;fontStyle=0;strokeWidth=2;resizeParent=0;resizeLast=1;shadow=0;dashed=0;align=center;arcSize=4;whiteSpace=wrap;html=1;" parent="1" vertex="1">
          <mxGeometry x="1290" y="2058" width="160" height="151" as="geometry" />
        </mxCell>
        <mxCell id="zdtQbdjInj4RLJj2KbnW-105" value="&lt;div&gt;&lt;font&gt;&lt;font style=&quot;&quot;&gt;&lt;u&gt;attendanceId&lt;/u&gt;&lt;/font&gt;&lt;/font&gt;&lt;/div&gt;&lt;div&gt;&lt;font&gt;&lt;font style=&quot;&quot;&gt;checkDate&lt;/font&gt;&lt;span style=&quot;background-color: transparent;&quot;&gt;&lt;/span&gt;&lt;/font&gt;&lt;/div&gt;&lt;div&gt;&lt;span style=&quot;background-color: transparent;&quot;&gt;&lt;font&gt;checkinAt&lt;/font&gt;&lt;/span&gt;&lt;/div&gt;&lt;div&gt;&lt;font&gt;checkoutAt&lt;/font&gt;&lt;/div&gt;&lt;div&gt;&lt;font&gt;isLate&lt;/font&gt;&lt;/div&gt;&lt;div&gt;&lt;font&gt;isAbsent&lt;/font&gt;&lt;/div&gt;" style="align=left;strokeColor=none;fillColor=none;spacingLeft=4;spacingRight=4;fontSize=12;verticalAlign=top;resizable=0;rotatable=0;part=1;html=1;whiteSpace=wrap;" parent="zdtQbdjInj4RLJj2KbnW-104" vertex="1">
          <mxGeometry y="50" width="160" height="101" as="geometry" />
        </mxCell>
        <mxCell id="82gl0qy_Dlbqwq-04wTw-3" style="edgeStyle=orthogonalEdgeStyle;rounded=0;orthogonalLoop=1;jettySize=auto;html=1;exitX=0;exitY=0.5;exitDx=0;exitDy=0;entryX=-0.022;entryY=0.348;entryDx=0;entryDy=0;entryPerimeter=0;shape=link;" parent="1" source="zdtQbdjInj4RLJj2KbnW-96" target="zdtQbdjInj4RLJj2KbnW-105" edge="1">
          <mxGeometry relative="1" as="geometry" />
        </mxCell>
        <mxCell id="W-RtsreizaeikjCs2j-w-2" value="" style="endArrow=none;html=1;rounded=0;entryX=0.165;entryY=0.008;entryDx=0;entryDy=0;exitX=0.5;exitY=1;exitDx=0;exitDy=0;entryPerimeter=0;" edge="1" parent="1" source="zdtQbdjInj4RLJj2KbnW-81" target="zdtQbdjInj4RLJj2KbnW-18">
          <mxGeometry relative="1" as="geometry">
            <mxPoint x="600" y="1260" as="sourcePoint" />
            <mxPoint x="760" y="1260" as="targetPoint" />
          </mxGeometry>
        </mxCell>
      </root>
    </mxGraphModel>
  </diagram>
</mxfile>
